<?xml version="1.0" encoding="utf-8" ?><svg xmlns="http://www.w3.org/2000/svg" xmlns:xlink="http://www.w3.org/1999/xlink" width="7675" height="5117" viewBox="0 0 7675 5117"><path fill="#DAD9D9" transform="matrix(4.99674 0 0 4.99707 0 0.000244141)" d="M875.13 426.611C880.45 425.737 895.733 426.171 901.892 426.242C928.103 425.642 959.681 427.665 959.52 461.774C959.455 475.669 960.589 487.2 949.09 497.346C941.678 504.913 926.84 508.801 916.589 509.053C884.115 509.85 842.331 511.392 843.201 467.711C842.817 450.703 845.373 439.545 861.41 431.767C866.975 429.183 869.086 428.287 875.13 426.611ZM920.457 488.173C923.075 487.218 926.06 486.25 928.494 484.96C935.743 475.055 938.333 456.327 927.795 448.693C919.071 442.372 891.965 444.053 881.418 444.926C869.75 452.036 867.838 455.603 868.081 469.759C868.497 493.991 895.873 487.381 911.815 488.422C913.677 488.544 918.694 488.53 920.457 488.173Z"/><path fill="#878586" transform="matrix(4.99674 0 0 4.99707 0 0.000244141)" d="M843.201 467.711C843.763 471.417 844.563 478.224 845.813 481.498C847.669 482.424 847.276 481.919 848.64 482.095C856.448 483.106 862.431 490.132 870.563 493.504C880.232 497.514 882.988 498.135 893.056 499.411C903.254 500.702 907.925 498.74 915.841 498.158C924.93 497.489 944.31 489.89 949.562 491.267C950.455 494.591 949.132 493.82 949.09 497.346C941.678 504.913 926.84 508.801 916.589 509.053C884.115 509.85 842.331 511.392 843.201 467.711Z"/><path fill="#5A5859" transform="matrix(4.99674 0 0 4.99707 0 0.000244141)" d="M850.066 487.908C855.975 489.229 868.784 499.62 879.964 502.639L880.871 502.88L880.593 502.92C878.027 503.118 876.195 504.337 873.676 504.097C862.712 503.051 854.663 498.075 850.066 487.908Z"/><path fill="#A2A0A1" transform="matrix(4.99674 0 0 4.99707 0 0.000244141)" d="M875.13 426.611C880.45 425.737 895.733 426.171 901.892 426.242C897.047 426.667 891.393 426.831 886.732 427.344C893.493 428.425 913.02 429.535 916.857 431.911C912.468 432.492 905.983 430.358 902.092 432.579C907.332 432.876 911.022 433.026 916.22 434.05C916.352 433.938 871.103 438.245 868.378 437.598C853.94 434.17 861.005 439.152 855.131 441.902C854.357 439.569 854.341 440.723 855.361 438.331C858.281 435.988 859.682 435.105 862.93 433.215L861.41 431.767C866.975 429.183 869.086 428.287 875.13 426.611Z"/><path fill="#DAD9D9" transform="matrix(4.99674 0 0 4.99707 0 0.000244141)" d="M861.41 431.767C866.975 429.183 869.086 428.287 875.13 426.611L879.012 427.162L879.476 427.953C876.422 430.073 867.716 431.089 862.93 433.215L861.41 431.767Z"/><path fill="#BEBCBD" transform="matrix(4.99674 0 0 4.99707 0 0.000244141)" d="M406.718 400.004C415.199 393.174 421.22 391.945 431.839 391.9C435.49 392.327 438.554 392.745 441.728 394.817C443.434 396.039 446.004 397.761 447.515 399.095C451.935 403.783 452.875 405.059 455.877 410.702C458.321 417.164 457.403 425.456 454.222 431.513C452.225 436.473 447.438 441.073 442.728 443.341C437.604 447.397 428.276 449.396 421.89 449.622C402.85 447.075 386.784 465.45 384.965 483.249C383.251 500.024 383.963 511.164 368.094 521.282C350.34 529.96 330.275 526.073 320.841 507.691C315.381 492.077 319.33 478.724 332.734 468.877C340.102 462.773 356.725 461.438 365.806 463.326C384.505 460.759 397.444 445.802 398.928 427.219L398.966 423.867C402.127 414.048 395.608 413.45 406.718 400.004Z"/><path fill="#A2A0A1" transform="matrix(4.99674 0 0 4.99707 0 0.000244141)" d="M406.718 400.004C415.199 393.174 421.22 391.945 431.839 391.9C435.49 392.327 438.554 392.745 441.728 394.817C443.434 396.039 446.004 397.761 447.515 399.095C451.935 403.783 452.875 405.059 455.877 410.702C458.321 417.164 457.403 425.456 454.222 431.513C452.225 436.473 447.438 441.073 442.728 443.341C437.604 447.397 428.276 449.396 421.89 449.622C402.85 447.075 386.784 465.45 384.965 483.249C383.251 500.024 383.963 511.164 368.094 521.282C368.356 519.483 368.245 519.548 369.347 518.131C370.004 515.481 370.42 514.821 369.592 512.37L373.44 508.291C375.827 504.127 376.633 502.452 376.108 497.843C376.065 497.384 376.265 495.838 376.321 495.286L376.718 494.6C379.507 486.553 378.629 478.768 380.017 473.958C382.449 465.524 396.234 449.621 404.17 445.349C407.864 443.36 410.292 443.411 413.495 441.638C413.256 439.855 413.347 440.432 411.559 438.898C406.371 443.046 404.152 439.404 398.382 446.388C396.796 442.891 399.757 433.997 398.928 427.219L398.966 423.867C402.127 414.048 395.608 413.45 406.718 400.004Z"/><defs><linearGradient id="gradient_0" gradientUnits="userSpaceOnUse" x1="428.6756" y1="448.17029" x2="435.17361" y2="422.58783"><stop offset="0" stop-color="#434243"/><stop offset="1" stop-color="#5C5C5C"/></linearGradient></defs><path fill="url(#gradient_0)" transform="matrix(4.99674 0 0 4.99707 0 0.000244141)" d="M436.196 418.951C442.413 417.763 452.071 415.906 453.938 424.901C454.342 426.85 453.96 429.424 454.222 431.513C452.225 436.473 447.438 441.073 442.728 443.341C437.604 447.397 428.276 449.396 421.89 449.622C423.02 447.86 422.987 447.668 423.368 445.56C422.522 442.437 412.311 433.541 409.059 430.585C416.621 427.886 426.362 422.474 436.196 418.951Z"/><path fill="#878586" transform="matrix(4.99674 0 0 4.99707 0 0.000244141)" d="M436.196 418.951C442.413 417.763 452.071 415.906 453.938 424.901C454.342 426.85 453.96 429.424 454.222 431.513C452.225 436.473 447.438 441.073 442.728 443.341C443.727 438.393 450.676 438.634 449.001 432.342C450.469 429.626 451.277 428.585 451.164 425.425C450.579 424.276 450.739 424.65 449.612 423.776C447.707 424.394 446.762 424.629 444.797 425.013C442.475 424.498 438.946 420.86 436.196 418.951Z"/><path fill="#F0EFEF" transform="matrix(4.99674 0 0 4.99707 0 0.000244141)" d="M451.164 425.425C451.277 428.585 450.469 429.626 449.001 432.342C441.61 439.036 439.748 439.586 430.55 442.857C436.869 436.346 442.167 436.078 451.164 425.425Z"/><path fill="#DAD9D9" transform="matrix(4.99674 0 0 4.99707 0 0.000244141)" d="M409.059 430.585L407.543 429.832L407.536 428.643C421.353 421.15 407.311 418.748 405.378 414.078C405.637 413.564 405.896 413.049 406.155 412.535C414.546 412.588 427.898 412.93 433.52 405.499C435.268 403.188 437.662 398.353 438.688 396.011L439.047 395.176L441.728 394.817C443.434 396.039 446.004 397.761 447.515 399.095C451.935 403.783 452.875 405.059 455.877 410.702C458.321 417.164 457.403 425.456 454.222 431.513C453.96 429.424 454.342 426.85 453.938 424.901C452.071 415.906 442.413 417.763 436.196 418.951C426.362 422.474 416.621 427.886 409.059 430.585Z"/><path fill="#F0EFEF" transform="matrix(4.99674 0 0 4.99707 0 0.000244141)" d="M455.877 410.702C455.301 412.422 455.395 412.339 454.138 413.629C446.136 416.836 438.047 409.467 441.149 401.87C443.032 399.633 444.572 399.689 447.515 399.095C451.935 403.783 452.875 405.059 455.877 410.702Z"/><path fill="#5A5859" transform="matrix(4.99674 0 0 4.99707 0 0.000244141)" d="M406.718 400.004C415.199 393.174 421.22 391.945 431.839 391.9C432.42 394.39 433.215 395.506 432.171 397.199C425.989 400.952 418.371 404.665 410.994 404.942C408.182 401.667 412 403.029 406.718 400.004Z"/><path fill="#F0EFEF" transform="matrix(4.99674 0 0 4.99707 0 0.000244141)" d="M398.966 423.867C402.338 424.714 407.412 431.826 409.269 434.896C410.061 436.213 410.824 437.547 411.559 438.898C406.371 443.046 404.152 439.404 398.382 446.388C396.796 442.891 399.757 433.997 398.928 427.219L398.966 423.867Z"/><path fill="#878586" transform="matrix(4.99674 0 0 4.99707 0 0.000244141)" d="M376.321 495.286C383.555 496.682 379.213 506.373 376.32 510.081L373.44 508.291C375.827 504.127 376.633 502.452 376.108 497.843C376.065 497.384 376.265 495.838 376.321 495.286Z"/><path fill="#878586" transform="matrix(4.99674 0 0 4.99707 0 0.000244141)" d="M373.44 508.291L376.32 510.081C373.891 513.187 372.059 515.259 369.347 518.131C370.004 515.481 370.42 514.821 369.592 512.37L373.44 508.291Z"/><defs><linearGradient id="gradient_1" gradientUnits="userSpaceOnUse" x1="357.65326" y1="523.13654" x2="348.76666" y2="497.74075"><stop offset="0" stop-color="#3C3B3C"/><stop offset="1" stop-color="#585858"/></linearGradient></defs><path fill="url(#gradient_1)" transform="matrix(4.99674 0 0 4.99707 0 0.000244141)" d="M334.887 503.206C341.838 501.013 370.396 486.169 376.138 490.252L376.718 494.6L376.321 495.286C376.265 495.838 376.065 497.384 376.108 497.843C376.633 502.452 375.827 504.127 373.44 508.291L369.592 512.37C370.42 514.821 370.004 515.481 369.347 518.131C368.245 519.548 368.356 519.483 368.094 521.282C350.34 529.96 330.275 526.073 320.841 507.691C324.754 509.921 330.093 511.249 334 508.184C335.321 507.148 334.895 504.814 334.887 503.206Z"/><path fill="#DAD9D9" transform="matrix(4.99674 0 0 4.99707 0 0.000244141)" d="M376.108 497.843C376.633 502.452 375.827 504.127 373.44 508.291L369.592 512.37C365.065 515.228 362.132 516.317 357.234 518.303C366.06 510.786 370.167 507.873 376.108 497.843Z"/><path fill="#DAD9D9" transform="matrix(4.99674 0 0 4.99707 0 0.000244141)" d="M411.559 438.898C413.347 440.432 413.256 439.855 413.495 441.638C410.292 443.411 407.864 443.36 404.17 445.349C396.234 449.621 382.449 465.524 380.017 473.958C378.629 478.768 379.507 486.553 376.718 494.6L376.138 490.252C370.396 486.169 341.838 501.013 334.887 503.206C332.039 503.035 328.798 502.483 325.942 502.078C323.724 499.732 323.664 489.818 324.609 486.996L326.234 488.877C359.102 491.342 357.384 473.871 379.591 461.147L379.918 461.589C376.623 464.874 355.802 478.001 365.601 484.057C367.573 485.276 373.95 485.253 376.383 484.323C377.989 483.709 376.942 471.888 378.935 470.076C381.669 465.036 394.691 449.003 398.382 446.388C404.152 439.404 406.371 443.046 411.559 438.898Z"/><path fill="#5A5859" transform="matrix(4.99674 0 0 4.99707 0 0.000244141)" d="M332.734 468.877C340.102 462.773 356.725 461.438 365.806 463.326C363.654 464.491 356.71 464.18 353.227 464.712L353.061 465.458L354.464 466.979L354.02 468.22C350.348 469.873 339.617 474.866 335.785 473.015C335.015 470.752 334.622 470.324 332.734 468.877Z"/><path fill="#F0EFEF" transform="matrix(4.99674 0 0 4.99707 0 0.000244141)" d="M376.889 466.734C377.907 467.069 377.577 466.991 378.427 467.844C374.906 474.78 376.884 480.63 369.073 482.981C362.254 475.087 370.819 471.274 376.889 466.734Z"/><defs><linearGradient id="gradient_2" gradientUnits="userSpaceOnUse" x1="768.59338" y1="497.84332" x2="767.77594" y2="428.68173"><stop offset="0" stop-color="#CFCFCE"/><stop offset="1" stop-color="#FEFDFE"/></linearGradient></defs><path fill="url(#gradient_2)" transform="matrix(4.99674 0 0 4.99707 0 0.000244141)" d="M707.99 507.493C705.897 507.082 706.768 507.533 705.22 506.218C704.524 503.026 704.73 496.344 705.029 492.513C706.392 475.014 699.35 450.004 713.235 436.401C715.672 434.014 720.751 430.31 723.867 429.704C746.076 425.812 770.195 427.906 792.821 427.529C831.985 426.877 832.033 451.646 831.822 481.107C831.771 487.515 831.493 495.229 831.673 501.523C831.656 503.24 831.794 504.06 831.032 505.616C825.394 508.162 813.653 506.878 807.07 506.658L807.191 489.215C806.586 474.142 812.347 450.479 794.201 445.758C786.872 445.415 784.966 444.943 779.766 450.747C779.708 453.65 779.748 459.651 779.351 462.288C779.548 477.189 779.556 492.093 779.374 506.994C774.23 507.029 768.136 507.212 763.057 507.072L757.31 507.132C756.085 502.94 756.444 461.238 756.859 454.767C752.994 441.265 741.664 444.971 732.033 449.643C729.175 459.482 730.192 479.559 730.245 490.534C730.339 496.091 730.387 501.649 730.39 507.207C723.594 507.186 714.589 506.921 707.99 507.493Z"/><defs><linearGradient id="gradient_3" gradientUnits="userSpaceOnUse" x1="758.74194" y1="433.54907" x2="733.43884" y2="503.99329"><stop offset="0" stop-color="#A7A5A6"/><stop offset="1" stop-color="#D4D4D3"/></linearGradient></defs><path fill="url(#gradient_3)" transform="matrix(4.99674 0 0 4.99707 0 0.000244141)" d="M722.589 440.203C735.278 433.729 785.764 432.583 798.114 437.954L797.202 438.458C792.122 443.586 795.69 441.409 794.201 445.758C786.872 445.415 784.966 444.943 779.766 450.747C779.708 453.65 779.748 459.651 779.351 462.288C779.548 477.189 779.556 492.093 779.374 506.994C774.23 507.029 768.136 507.212 763.057 507.072L757.31 507.132C756.085 502.94 756.444 461.238 756.859 454.767C752.994 441.265 741.664 444.971 732.033 449.643C729.175 459.482 730.192 479.559 730.245 490.534C730.339 496.091 730.387 501.649 730.39 507.207C723.594 507.186 714.589 506.921 707.99 507.493C706.426 499.495 710.059 500.863 714.214 494.898C713.075 494.852 711.066 495.045 709.85 495.127L709.648 494.323C731.131 480.537 706.515 463.849 722.589 440.203Z"/><defs><linearGradient id="gradient_4" gradientUnits="userSpaceOnUse" x1="771.1922" y1="482.86566" x2="757.14667" y2="483.71976"><stop offset="0" stop-color="#D3D3D3"/><stop offset="1" stop-color="#FEFDFD"/></linearGradient></defs><path fill="url(#gradient_4)" transform="matrix(4.99674 0 0 4.99707 0 0.000244141)" d="M757.828 503.981C757.784 496.51 756.48 464.201 759.348 459.937C764.604 457.551 769.002 463.237 771.624 467.225L772.104 467.962L773.171 467.254L774.368 467.798L774.127 467.278L773.258 467.157L774.316 467.823C777.124 480.838 773.643 489.937 768.646 501.754C768.753 503.476 768.894 504.043 768.366 505.725C766.534 506.258 764.916 506.644 763.057 507.072L757.31 507.132L757.828 503.981Z"/><path fill="#DAD9D9" transform="matrix(4.99674 0 0 4.99707 0 0.000244141)" d="M757.828 503.981C763.941 504.256 763.801 502.434 767.375 497.491L768.205 498.131L768.646 501.754C768.753 503.476 768.894 504.043 768.366 505.725C766.534 506.258 764.916 506.644 763.057 507.072L757.31 507.132L757.828 503.981Z"/><path fill="#878586" transform="matrix(4.99674 0 0 4.99707 0 0.000244141)" d="M714.214 494.898C714.596 495.176 726.602 496.705 727.769 496.74C729.458 492.73 727.25 493.384 730.245 490.534C730.339 496.091 730.387 501.649 730.39 507.207C723.594 507.186 714.589 506.921 707.99 507.493C706.426 499.495 710.059 500.863 714.214 494.898Z"/><path fill="#A2A0A1" transform="matrix(4.99674 0 0 4.99707 0 0.000244141)" d="M779.351 462.288C778.763 454.754 774.587 444.968 770.83 438.27L768.502 437.791L768.348 437.107C777.885 436.034 786.102 438.756 797.202 438.458C792.122 443.586 795.69 441.409 794.201 445.758C786.872 445.415 784.966 444.943 779.766 450.747C779.708 453.65 779.748 459.651 779.351 462.288Z"/><path fill="#A2A0A1" transform="matrix(4.99674 0 0 4.99707 0 0.000244141)" d="M732.033 449.643L731.928 448.801C732.646 448.209 734.572 446.976 734.603 446.163C734.903 438.328 755.229 434.688 758.933 440.75C759.661 441.941 756.468 450.786 756.859 454.767C752.994 441.265 741.664 444.971 732.033 449.643Z"/><defs><linearGradient id="gradient_5" gradientUnits="userSpaceOnUse" x1="791.06482" y1="444.92361" x2="817.99542" y2="472.91705"><stop offset="0" stop-color="#A19FA1"/><stop offset="1" stop-color="#D2D1D1"/></linearGradient></defs><path fill="url(#gradient_5)" transform="matrix(4.99674 0 0 4.99707 0 0.000244141)" d="M798.114 437.954C809.481 441.365 828.773 460.006 816.083 475.314C815.117 476.479 809.461 476.235 808.757 477.425C807.176 481.563 808.787 484.915 807.191 489.215C806.586 474.142 812.347 450.479 794.201 445.758C795.69 441.409 792.122 443.586 797.202 438.458L798.114 437.954Z"/><path fill="#DAD9D9" transform="matrix(4.99674 0 0 4.99707 0 0.000244141)" d="M831.822 481.107C831.771 487.515 831.493 495.229 831.673 501.523C825.712 501.525 819.751 501.481 813.791 501.391C811.61 496.817 818.131 484.436 823.158 481.793C826.883 481.152 827.169 482.426 830.494 482.701L831.822 481.107Z"/><defs><linearGradient id="gradient_6" gradientUnits="userSpaceOnUse" x1="1016.9995" y1="419.05737" x2="1057.5331" y2="490.62698"><stop offset="0" stop-color="#A1A0A0"/><stop offset="1" stop-color="#DCDBDB"/></linearGradient></defs><path fill="url(#gradient_6)" transform="matrix(4.99674 0 0 4.99707 0 0.000244141)" d="M971.995 507.898L971.826 456.945C971.803 449.472 971.38 435.374 972.279 428.585C974.132 427.377 973.91 427.834 976.707 428.041C990.861 428.599 1005.13 428.212 1019.3 428.239C1035.25 428.27 1051.08 426.909 1064.97 436.494C1068.3 438.772 1068.74 439.588 1070.96 443.001C1073.46 447.161 1073.36 448.728 1073.9 453.373C1075.9 470.719 1064.35 478.658 1049.72 483.048L1056.89 489.33C1059.28 491.302 1063.32 494.436 1065.16 496.671C1067.8 499.979 1070.17 502.414 1073.12 505.462C1073.3 505.814 1073.77 506.659 1073.83 506.993L1059.76 507.138C1054.83 507.286 1050.19 507.113 1045.28 506.954C1041.25 504.06 1037.54 500.761 1034.19 497.107C1028.74 492.793 1012.22 478.589 1012.1 472.009C1016.65 463.973 1042 472.335 1046.68 464.721C1062.75 438.564 1005.3 444.563 997.01 444.824L997.1 454.972C997.05 458.2 997.112 463.118 996.807 466.187C997.435 476.622 996.631 486.78 996.905 496.978L996.719 507.72C988.921 508.083 979.889 507.889 971.995 507.898Z"/><defs><linearGradient id="gradient_7" gradientUnits="userSpaceOnUse" x1="1021.2962" y1="482.67911" x2="994.88922" y2="420.3555"><stop offset="0" stop-color="#C9C8C8"/><stop offset="1" stop-color="#FBFAFB"/></linearGradient></defs><path fill="url(#gradient_7)" transform="matrix(4.99674 0 0 4.99707 0 0.000244141)" d="M971.995 507.898L971.826 456.945C971.803 449.472 971.38 435.374 972.279 428.585C974.132 427.377 973.91 427.834 976.707 428.041C990.861 428.599 1005.13 428.212 1019.3 428.239C1035.25 428.27 1051.08 426.909 1064.97 436.494C1063.43 437.401 1062.8 437.942 1061 438.148C1053.92 434.601 1045.97 433.841 1038.16 433.521C1023.25 433.976 1003.2 432.891 989.097 434.052C990.369 441.34 990.524 450.813 997.1 454.972C997.05 458.2 997.112 463.118 996.807 466.187C997.435 476.622 996.631 486.78 996.905 496.978L996.719 507.72C988.921 508.083 979.889 507.889 971.995 507.898Z"/><path fill="#878586" transform="matrix(4.99674 0 0 4.99707 0 0.000244141)" d="M971.995 507.898L971.826 456.945C971.803 449.472 971.38 435.374 972.279 428.585C974.132 427.377 973.91 427.834 976.707 428.041L973.51 428.669C972.065 431.304 972.537 499.554 973.083 505.741L974.388 506.891C976.189 505.674 975.56 504.631 976.71 503.988C981.239 501.458 991.937 494.564 996.905 496.978L996.719 507.72C988.921 508.083 979.889 507.889 971.995 507.898Z"/><path fill="#BEBCBD" transform="matrix(4.99674 0 0 4.99707 0 0.000244141)" d="M981.876 433.012C990.049 432.466 1002.16 432.931 1010.58 432.899C1018.06 432.872 1031.11 432.616 1038.16 433.521C1023.25 433.976 1003.2 432.891 989.097 434.052C990.369 441.34 990.524 450.813 997.1 454.972C997.05 458.2 997.112 463.118 996.807 466.187C995.428 463.227 996.137 463.381 995.841 460.667C994.728 457.425 990.381 454.732 987.666 452.666C982.785 448.951 982.622 439.171 981.876 433.012Z"/><path fill="#878586" transform="matrix(4.99674 0 0 4.99707 0 0.000244141)" d="M1027.13 487.08C1034.53 489.805 1055.27 502.149 1059.76 507.138C1054.83 507.286 1050.19 507.113 1045.28 506.954C1041.25 504.06 1037.54 500.761 1034.19 497.107L1035.1 496.158C1032.34 492.502 1029.77 490.346 1027.13 487.08Z"/><path fill="#F0EFEF" transform="matrix(4.99674 0 0 4.99707 0 0.000244141)" d="M1056.89 489.33C1059.28 491.302 1063.32 494.436 1065.16 496.671C1067.8 499.979 1070.17 502.414 1073.12 505.462C1067.21 505.668 1053.07 496.619 1056.89 489.33Z"/><path fill="#DAD9D9" transform="matrix(4.99674 0 0 4.99707 0 0.000244141)" d="M1064.97 436.494C1068.3 438.772 1068.74 439.588 1070.96 443.001L1070.21 445.279L1068.87 445.573C1065.75 443.109 1063.96 440.514 1061 438.148C1062.8 437.942 1063.43 437.401 1064.97 436.494Z"/><path fill="#DAD9D9" transform="matrix(4.99674 0 0 4.99707 0 0.000244141)" d="M590.205 427.484C594.828 426.642 608.737 427.077 614.478 427.03C614.512 429.584 614.648 432.992 614.513 435.463C614.449 439 614.541 445.822 614.197 449.085C614.697 482.204 609.989 490.636 648.501 488.637C655.086 488.295 655.847 488.272 661.44 484.687C668.968 469.945 665.97 445.432 665.973 428.057C674.146 427.815 681.775 427.994 689.956 428.197C689.992 442.46 691.557 476.747 686.631 487.825C685.091 491.25 684.485 492.315 682.359 495.413C681.42 496.449 680.456 497.463 679.47 498.454C670.031 507.867 653.047 508.488 640.22 508.465C629.672 508.446 614.079 507.758 604.889 502.257C603.07 501.169 597.24 495.179 595.454 493.368C594.579 492.239 592.99 489.618 592.136 488.309C590.074 483.466 589.859 481.145 589.061 475.864C587.807 463.506 588.514 445.476 588.254 432.618C588.192 429.555 588.45 429.048 590.205 427.484Z"/><path fill="#878586" transform="matrix(4.99674 0 0 4.99707 0 0.000244141)" d="M595.454 493.368C601.338 490.712 625.942 500.036 635.872 500.685C653.041 501.806 664.231 497.285 680.451 494.052C681 493.956 681.951 495.032 682.359 495.413C681.42 496.449 680.456 497.463 679.47 498.454C670.031 507.867 653.047 508.488 640.22 508.465C629.672 508.446 614.079 507.758 604.889 502.257C603.07 501.169 597.24 495.179 595.454 493.368Z"/><path fill="#BEBCBD" transform="matrix(4.99674 0 0 4.99707 0 0.000244141)" d="M592.136 488.309C599.564 481.304 613.69 491.723 622.596 493.862C635.339 496.922 648.346 500.178 660.862 493.882C668.069 490.257 674.117 484.292 682.156 483.194C683.506 483.008 684.383 481.615 685.403 480.586L686.301 480.614C686.66 483.078 686.608 485.342 686.631 487.825C685.091 491.25 684.485 492.315 682.359 495.413C681.951 495.032 681 493.956 680.451 494.052C664.231 497.285 653.041 501.806 635.872 500.685C625.942 500.036 601.338 490.712 595.454 493.368C594.579 492.239 592.99 489.618 592.136 488.309Z"/><defs><linearGradient id="gradient_8" gradientUnits="userSpaceOnUse" x1="584.43707" y1="438.68259" x2="595.69073" y2="449.91119"><stop offset="0" stop-color="#9C9A9A"/><stop offset="1" stop-color="#C1C0C0"/></linearGradient></defs><path fill="url(#gradient_8)" transform="matrix(4.99674 0 0 4.99707 0 0.000244141)" d="M590.205 427.484C594.828 426.642 608.737 427.077 614.478 427.03C614.512 429.584 614.648 432.992 614.513 435.463C614.449 439 614.541 445.822 614.197 449.085C612.818 446.905 613.35 437.6 613.098 433.89C609.434 438.844 607.613 440.469 602.143 443.456C587.048 451.699 592.527 462.935 589.061 475.864C587.807 463.506 588.514 445.476 588.254 432.618C588.192 429.555 588.45 429.048 590.205 427.484Z"/><path fill="#878586" transform="matrix(4.99674 0 0 4.99707 0 0.000244141)" d="M590.205 427.484C594.828 426.642 608.737 427.077 614.478 427.03C614.512 429.584 614.648 432.992 614.513 435.463C612.58 431.43 613.196 432.25 608.9 432.379C603.21 432.55 597.06 435.725 591.683 433.282C591.229 431.137 590.844 429.581 590.205 427.484Z"/><path fill="#F0EFEF" transform="matrix(4.99674 0 0 4.99707 0 0.000244141)" d="M499.504 427.793C508.101 427.705 516.919 427.72 525.494 427.485C525.497 436.178 526.655 471.501 525.144 477.79C527.652 483.665 529.15 485.696 535.341 487.924C548.039 488.515 564.333 487.488 576.264 488.388C578.708 488.28 580.854 487.81 582.732 489.12C583.344 491.526 583.001 493.247 582.781 495.719C582.887 499.247 582.894 503.619 583.435 507.032C570.51 506.79 523.696 508.773 515.308 503.118C497.813 495.685 499.451 481.034 499.503 464.282L499.504 427.793Z"/><defs><linearGradient id="gradient_9" gradientUnits="userSpaceOnUse" x1="543.79932" y1="506.29538" x2="544.77881" y2="496.44232"><stop offset="0" stop-color="#6B696B"/><stop offset="1" stop-color="#807F7F"/></linearGradient></defs><path fill="url(#gradient_9)" transform="matrix(4.99674 0 0 4.99707 0 0.000244141)" d="M515.308 503.118L516.062 502.576C515.363 499.708 500.371 492.951 505.266 487.167C511.966 485.332 526.007 494.087 536.376 495.093C551.876 496.597 567.305 496.086 582.781 495.719C582.887 499.247 582.894 503.619 583.435 507.032C570.51 506.79 523.696 508.773 515.308 503.118Z"/><path fill="#5A5859" transform="matrix(4.99674 0 0 4.99707 0 0.000244141)" d="M499.504 427.793C508.101 427.705 516.919 427.72 525.494 427.485C525.497 436.178 526.655 471.501 525.144 477.79C523.057 474.191 525.958 432.086 523.106 428.22C521.058 430.614 521.694 433.677 520.545 435.359C515.155 443.249 513.127 452.865 507.932 460.963C506.03 463.929 502.666 463.658 499.503 464.282L499.504 427.793Z"/><path fill="#DAD9D9" transform="matrix(4.99674 0 0 4.99707 0 0.000244141)" d="M393.708 568.34C388.227 564.129 384.971 556.104 384.883 549.296C384.805 541.648 387.779 534.285 393.146 528.837C405.438 516.48 424.796 517.878 436.755 530.199C442.164 537.422 444.07 545.349 441.877 554.245C441.667 559.889 437.173 564.681 433.265 568.293L432.476 569.014C420.854 577.607 404.654 578.674 393.708 568.34Z"/><path fill="#5A5859" transform="matrix(4.99674 0 0 4.99707 0 0.000244141)" d="M420.546 548.175C423.522 547.212 431.319 544.242 433.692 546.041C434.978 547.016 440.434 552.628 441.877 554.245C441.667 559.889 437.173 564.681 433.265 568.293L432.476 569.014C420.854 577.607 404.654 578.674 393.708 568.34C395.087 568.996 398.497 570.962 399.598 570.705C397.362 568.065 392.599 562.883 392.118 559.626L393.299 559.123C398.357 560.047 403.424 568.08 407.97 571.444C404.412 564.376 403.266 562.992 397.31 557.686C405.006 553.776 412.519 551.268 420.546 548.175Z"/><path fill="#878586" transform="matrix(4.99674 0 0 4.99707 0 0.000244141)" d="M420.546 548.175C423.522 547.212 431.319 544.242 433.692 546.041C434.978 547.016 440.434 552.628 441.877 554.245C441.667 559.889 437.173 564.681 433.265 568.293L432.476 569.014C433.04 566.571 433.701 565.136 432.698 562.924C434.371 560.851 437.056 557.28 436.892 554.541L435.674 554.621C431.119 552.357 425.051 548.167 420.546 548.175Z"/><path fill="#F0EFEF" transform="matrix(4.99674 0 0 4.99707 0 0.000244141)" d="M435.674 554.621L436.892 554.541C437.056 557.28 434.371 560.851 432.698 562.924C429.596 565.63 424.537 569.286 420.264 569.096C421.602 566.97 430.671 560.831 435.674 554.621Z"/><path fill="#BEBCBD" transform="matrix(4.99674 0 0 4.99707 0 0.000244141)" d="M393.708 568.34C388.227 564.129 384.971 556.104 384.883 549.296C384.805 541.648 387.779 534.285 393.146 528.837C405.438 516.48 424.796 517.878 436.755 530.199L435.762 530.956L430.543 526.185C428.091 524.956 422.931 522.085 420.345 522.618C421.513 524.025 423.072 524.69 424.693 525.571C423.603 536.302 400.377 545.799 391.325 539.709C389.496 543.207 390.669 549.739 391.495 553.539C391.921 555.498 393.057 555.749 394.814 556.555L397.31 557.686C403.266 562.992 404.412 564.376 407.97 571.444C403.424 568.08 398.357 560.047 393.299 559.123L392.118 559.626C392.599 562.883 397.362 568.065 399.598 570.705C398.497 570.962 395.087 568.996 393.708 568.34Z"/><path fill="#F0EFEF" transform="matrix(4.99674 0 0 4.99707 0 0.000244141)" d="M430.543 526.185L435.762 530.956C437.945 534.67 440.225 536.385 439.083 540.95C432.904 546.67 419.41 533.134 430.543 526.185Z"/><defs><linearGradient id="gradient_10" gradientUnits="userSpaceOnUse" x1="1104.1082" y1="463.67227" x2="1122.0962" y2="477.94437"><stop offset="0" stop-color="#B1AFB0"/><stop offset="1" stop-color="#E1E1E1"/></linearGradient></defs><path fill="url(#gradient_10)" transform="matrix(4.99674 0 0 4.99707 0 0.000244141)" d="M1122.79 428.764C1129.81 427.582 1148.32 428.189 1156.32 428.37C1158.67 430.291 1159.29 430.731 1161.05 433.29C1156.41 441.589 1151.23 441.833 1145.17 447.91C1144.43 448.651 1144.86 448.486 1143.65 448.908L1141 447.384C1137.28 448.61 1108.82 498.943 1102.69 506.26C1093.52 507.216 1083.09 506.17 1073.83 506.993C1073.77 506.659 1073.3 505.814 1073.12 505.462C1070.17 502.414 1067.8 499.979 1065.16 496.671C1069.14 499.534 1071.48 501.915 1074.96 505.307C1075.77 503.937 1078.82 498.566 1079.67 497.735C1082.58 492.041 1118.85 432.343 1122.79 428.764Z"/><path fill="#F0EFEF" transform="matrix(4.99674 0 0 4.99707 0 0.000244141)" d="M1122.79 428.764C1129.81 427.582 1148.32 428.189 1156.32 428.37C1153.96 436.445 1145.26 437.236 1142.25 444.432C1138.89 442.026 1137.34 440.795 1133.33 439.662C1132.21 429.418 1126.53 433.691 1122.79 428.764Z"/><path fill="#DAD9D9" transform="matrix(4.99674 0 0 4.99707 0 0.000244141)" d="M1079.67 497.735C1082.58 492.041 1118.85 432.343 1122.79 428.764C1126.53 433.691 1132.21 429.418 1133.33 439.662C1130.45 436.809 1127.72 431.971 1122.62 433.162L1121.54 435.07C1116.07 444.166 1109.94 452.661 1104.97 461.947C1096.71 472.5 1088.68 488.525 1081.17 500.305C1080.1 501.713 1079.5 503.056 1078.08 503.458C1078.85 501.497 1079.73 499.869 1079.67 497.735Z"/><path fill="#878586" transform="matrix(4.99674 0 0 4.99707 0 0.000244141)" d="M1079.67 497.735C1079.73 499.869 1078.85 501.497 1078.08 503.458C1079.5 503.056 1080.1 501.713 1081.17 500.305C1086.24 499.524 1096.23 499.226 1101.26 500.186L1102.13 501.023C1101.96 503.804 1101.52 503.978 1102.69 506.26C1093.52 507.216 1083.09 506.17 1073.83 506.993C1073.77 506.659 1073.3 505.814 1073.12 505.462C1070.17 502.414 1067.8 499.979 1065.16 496.671C1069.14 499.534 1071.48 501.915 1074.96 505.307C1075.77 503.937 1078.82 498.566 1079.67 497.735Z"/><path fill="#878586" transform="matrix(4.99674 0 0 4.99707 0 0.000244141)" d="M1121.54 435.07C1128.77 445.397 1114.59 462.761 1104.97 461.947C1109.94 452.661 1116.07 444.166 1121.54 435.07Z"/><defs><linearGradient id="gradient_11" gradientUnits="userSpaceOnUse" x1="1173.744" y1="442.35159" x2="1171.3571" y2="503.99606"><stop offset="0" stop-color="#BABABA"/><stop offset="1" stop-color="#E9E8E8"/></linearGradient></defs><path fill="url(#gradient_11)" transform="matrix(4.99674 0 0 4.99707 0 0.000244141)" d="M1161.05 433.29L1164.67 438.193C1170.65 447.07 1182.46 463.681 1187.08 472.463C1196.68 484.175 1201.68 495.284 1209.73 506.93C1199.7 507.275 1189.24 506.623 1179.19 506.173C1175.64 500.752 1171.46 494.808 1168.89 488.92C1166.82 489.074 1154.43 488.51 1151.51 488.466C1144.36 488.45 1137.2 488.508 1130.04 488.641L1129.25 488.254C1129.1 486.891 1134.33 477.031 1135.41 474.422C1139.27 470.205 1151.76 471.767 1157.79 471.753C1154.92 466.536 1144.83 452.965 1143.65 448.908C1144.86 448.486 1144.43 448.651 1145.17 447.91C1151.23 441.833 1156.41 441.589 1161.05 433.29Z"/><path fill="#BEBCBD" transform="matrix(4.99674 0 0 4.99707 0 0.000244141)" d="M1135.41 474.422C1140.05 481.616 1165.66 482.512 1168.89 488.92C1166.82 489.074 1154.43 488.51 1151.51 488.466C1144.36 488.45 1137.2 488.508 1130.04 488.641L1129.25 488.254C1129.1 486.891 1134.33 477.031 1135.41 474.422Z"/><path fill="#878586" transform="matrix(4.99674 0 0 4.99707 0 0.000244141)" d="M1136.22 479.727C1141.01 484.518 1145 486.449 1151.51 488.466C1144.36 488.45 1137.2 488.508 1130.04 488.641C1133.04 486.06 1134.25 483.143 1136.22 479.727Z"/><path fill="#A2A0A1" transform="matrix(4.99674 0 0 4.99707 0 0.000244141)" d="M1164.67 438.193C1170.65 447.07 1182.46 463.681 1187.08 472.463C1184.95 471.13 1183.03 468.589 1181.39 466.64C1166.63 463.585 1155.39 453.72 1164.67 438.193Z"/><path fill="#F0EFEF" transform="matrix(4.99674 0 0 4.99707 0 0.000244141)" d="M891.07 541.089C902.3 541.366 919.584 538.518 926.191 549.033C932.358 570.772 905.01 568.63 891.158 567.391L891.064 557.304L891.07 541.089ZM919.308 551.365C913.434 543.77 906.512 545.328 897.845 546.09C898.644 551.095 898.358 557.439 898.306 562.605C908.787 562.758 919.664 565.189 919.308 551.365Z"/><path fill="#DAD9D9" transform="matrix(4.99674 0 0 4.99707 0 0.000244141)" d="M891.064 557.304C892.842 558.225 894.524 559.398 896.455 559.253C898.421 556.63 897.004 550.337 897.845 546.09C898.644 551.095 898.358 557.439 898.306 562.605C908.787 562.758 919.664 565.189 919.308 551.365C920.95 553.283 921.406 558.05 925.161 557.913C926.464 555.434 926.15 551.985 926.191 549.033C932.358 570.772 905.01 568.63 891.158 567.391L891.064 557.304Z"/><path fill="#A2A0A1" transform="matrix(4.99674 0 0 4.99707 0 0.000244141)" d="M748.239 540.839C760.617 541.599 786.014 535.864 781.677 555.151C779.632 557.21 778.61 556.872 775.381 557.633C778.04 560.145 783.517 564.769 784.102 568.108C774.639 568.472 773.484 565.367 766.926 559.148L756.1 558.917C756.162 561.599 756.436 563.639 755.501 566.133C753.041 567.566 751.761 567.075 748.578 567.143L748.239 540.839ZM773.79 552.106C774.704 549.691 774.625 550.884 774.102 548.404C770.953 545.546 759.498 546.772 754.92 546.952C755.243 550.775 754.672 550.572 756.597 553.408C761.48 555.85 766.293 554.666 771.506 552.934C772.275 552.678 773.036 552.402 773.79 552.106Z"/><path fill="#F0EFEF" transform="matrix(4.99674 0 0 4.99707 0 0.000244141)" d="M841.111 550.368C845.801 541.314 846.086 539.323 856.473 541.734C860.536 544.138 871.596 564.135 868.832 569.025C864.913 569.154 861.366 564.814 859.037 562.069C856.007 562.696 855.087 562.434 852.133 561.963C849.541 562.48 846.075 562.326 842.597 562.968C840.953 566.772 837.872 570.846 833.256 568.058C832.194 563.949 838.776 554.383 841.111 550.368ZM856.869 557.291L854.788 553.488L851.867 548.506C850.196 549.448 849.653 549.586 848.642 551.247C847.31 553.696 846.461 554.139 846.99 556.315C850.386 557.561 852.614 556.29 856.869 557.291Z"/><path fill="#A2A0A1" transform="matrix(4.99674 0 0 4.99707 0 0.000244141)" d="M841.111 550.368L843.846 553.722C846.246 553.669 846.421 552.927 848.642 551.247C847.31 553.696 846.461 554.139 846.99 556.315C850.386 557.561 852.614 556.29 856.869 557.291L854.788 553.488L855.286 553.848C860.295 557.528 858.745 559.294 865.371 558.761L865.828 560.189C864.202 561.664 861.383 561.722 859.037 562.069C856.007 562.696 855.087 562.434 852.133 561.963C849.541 562.48 846.075 562.326 842.597 562.968C840.953 566.772 837.872 570.846 833.256 568.058C832.194 563.949 838.776 554.383 841.111 550.368Z"/><path fill="#BEBCBD" transform="matrix(4.99674 0 0 4.99707 0 0.000244141)" d="M854.788 553.488L855.286 553.848C860.295 557.528 858.745 559.294 865.371 558.761L865.828 560.189C864.202 561.664 861.383 561.722 859.037 562.069C856.007 562.696 855.087 562.434 852.133 561.963C850.945 561.95 849.758 561.925 848.572 561.888C846.401 561.815 843.586 561.775 842.096 560.168L842.782 559.243C849.481 556.908 849.953 557.59 856.869 557.291L854.788 553.488Z"/><path fill="#DAD9D9" transform="matrix(4.99674 0 0 4.99707 0 0.000244141)" d="M841.111 550.368C845.801 541.314 846.086 539.323 856.473 541.734L855.523 542.134C852.603 542.643 853.244 542.082 851.581 543.872C851.131 546.448 851.732 546.187 851.867 548.506C850.196 549.448 849.653 549.586 848.642 551.247C846.421 552.927 846.246 553.669 843.846 553.722L841.111 550.368Z"/><path fill="#A2A0A1" transform="matrix(4.99674 0 0 4.99707 0 0.000244141)" d="M856.473 541.734C860.536 544.138 871.596 564.135 868.832 569.025C864.913 569.154 861.366 564.814 859.037 562.069C861.383 561.722 864.202 561.664 865.828 560.189L865.371 558.761C862.189 552.81 859.524 547.596 855.523 542.134L856.473 541.734Z"/><path fill="#BEBCBD" transform="matrix(4.99674 0 0 4.99707 0 0.000244141)" d="M719.062 541.183C722.619 541.049 726.359 540.504 729.382 542.179L730.243 543.361C727.397 547.311 720.328 546.561 715.93 546.538C716.281 551.768 717.538 564.72 711.846 567.804C708.109 565.764 708.865 561.023 708.864 557.154C708.712 553.484 709.338 551.897 708.77 547.982C707.212 545.725 707.82 546.451 704.233 545.71C701.851 546.192 697.171 546.848 695.399 545.076C695.542 543.727 695.289 543.15 696.18 542.562C700.189 539.917 714.361 541.092 719.062 541.183Z"/><path fill="#878586" transform="matrix(4.99674 0 0 4.99707 0 0.000244141)" d="M708.864 557.154C709.838 558.84 709.429 558.288 711.48 559.255C716.19 557.662 715.848 550.635 715.93 546.538C716.281 551.768 717.538 564.72 711.846 567.804C708.109 565.764 708.865 561.023 708.864 557.154Z"/><path fill="#A2A0A1" transform="matrix(4.99674 0 0 4.99707 0 0.000244141)" d="M704.233 545.71C701.851 546.192 697.171 546.848 695.399 545.076C695.542 543.727 695.289 543.15 696.18 542.562C700.189 539.917 714.361 541.092 719.062 541.183C714.619 543.714 705.691 539.198 703.959 544.313L704.233 545.71Z"/><path fill="#A2A0A1" transform="matrix(4.99674 0 0 4.99707 0 0.000244141)" d="M804.301 563.58C804.302 558.669 802.613 545.413 805.606 542.231C807.971 541.66 808.663 542.25 811.056 543.255L811.982 543.882C812.088 547.91 812.538 554.299 812.13 558.106C811.438 564.557 813.556 562.913 813.898 567.625C810.614 568.913 805.352 567.071 804.301 563.58Z"/><path fill="#DAD9D9" transform="matrix(4.99674 0 0 4.99707 0 0.000244141)" d="M804.301 563.58C804.302 558.669 802.613 545.413 805.606 542.231C807.971 541.66 808.663 542.25 811.056 543.255C810.906 545.377 810.942 549.506 810.553 551.298L809.927 551.121C808.49 550.724 807.673 550.273 806.368 550.826C805.412 555.286 805.039 559.171 804.301 563.58Z"/></svg>