<?xml version="1.0" encoding="utf-8" ?><svg xmlns="http://www.w3.org/2000/svg" xmlns:xlink="http://www.w3.org/1999/xlink" width="1248" height="832" viewBox="0 0 1248 832"><defs><linearGradient id="gradient_0" gradientUnits="userSpaceOnUse" x1="777.31732" y1="400.57825" x2="691.27893" y2="371.69348"><stop offset="0" stop-color="#153A85"/><stop offset="1" stop-color="#6A3A8F"/></linearGradient></defs><path fill="url(#gradient_0)" d="M728.466 355.682C729.232 355.597 729.947 355.539 730.703 355.514C753.842 354.722 780.985 354.065 780.802 384.95C781.085 394.458 779.648 403.343 772.684 410.449C764.434 418.869 750.845 417.241 739.934 417.142C725.612 416.938 708.172 420.065 696.493 409.488C684.778 398.879 685.412 374.789 695.827 363.464C704.403 354.139 716.771 355.851 728.466 355.682ZM710.834 372.466L706.041 378.464C705.681 386.109 704.66 391.933 708.654 398.613C719.502 405.699 734.513 403.631 747.688 403.442C761.218 402.077 763.785 395.907 763.171 382.89C762.346 365.379 735.932 369.409 723.086 369.636C717.59 369.858 715.781 370.123 710.834 372.466Z"/><defs><linearGradient id="gradient_1" gradientUnits="userSpaceOnUse" x1="579.6283" y1="363.57706" x2="672.36139" y2="420.11392"><stop offset="0" stop-color="#E74671"/><stop offset="1" stop-color="#933395"/></linearGradient></defs><path fill="url(#gradient_1)" d="M593.404 356.211L634.497 356.172C645.759 356.165 661.118 354.064 669.735 362.205C672.712 365.061 674.914 368.627 676.135 372.569C678.637 380.74 677.461 406.059 677.718 416.35C671.398 416.4 665.078 416.385 658.759 416.307C658.853 408.715 660.266 376.698 655.927 374.274C629.587 359.56 634.057 389.985 634.095 398.781L634.031 416.897L616.077 416.803L615.927 378.653C615.686 378.271 615.442 377.89 615.194 377.512C611.563 371.968 609.453 371.808 603.145 370.478C597.717 371.933 596.609 372.359 593.245 376.871C591.622 385.555 592.052 407.45 592.286 416.973C585.787 416.961 579.324 416.869 572.839 417.342C572.904 394.675 565.097 362.727 593.404 356.211Z"/><path fill="#053678" d="M792.866 356.514C805.964 356.673 819.064 356.747 832.163 356.735C839.344 356.713 848.798 356.221 855.807 357.065C867.343 358.455 876.065 366.805 875.334 378.944C874.541 392.088 868.492 396.959 855.888 399.468C862.774 405.839 867.757 409.917 874.803 416.95C867.678 417.016 859.025 417.454 852.125 417.058C846.942 413.442 838.14 404.481 833.25 399.746C830.594 397.396 826.1 394.208 826.386 390.573C831.232 386.368 857.781 394.964 857.315 379.424C857.015 369.417 842.776 369.799 836.055 369.979C828.492 370.181 820.785 369.673 813.405 370.45C813.521 385.743 813.219 401.559 813.141 416.922L792.725 416.915C793.396 397.991 792.865 375.739 792.866 356.514Z"/><path fill="#053678" d="M921.493 356.795C929.334 357.179 940.994 356.865 948.755 356.51C953.375 362.606 958.314 370.623 962.861 377.091C972.227 390.298 981.734 403.405 991.378 416.41C983.126 416.659 974.868 416.683 966.615 416.484C963.276 412.267 961.102 408.432 958.358 403.821C948.57 403.459 938.828 404.03 928.722 403.518C930.657 398.118 930.935 397.016 933.588 391.846C939.075 391.653 944.895 392.431 950.25 391.535C950.335 388.438 938.09 373.023 935.425 370.418C929.443 375.263 907.036 408.848 901.67 416.958L878.532 417.069C883.686 410.884 888.377 402.954 893.016 396.261C901.835 383.535 911.511 368.514 921.493 356.795Z"/><defs><linearGradient id="gradient_2" gradientUnits="userSpaceOnUse" x1="261.27625" y1="426.54794" x2="317.62024" y2="357.40442"><stop offset="0" stop-color="#F4D08F"/><stop offset="1" stop-color="#B7E0E6"/></linearGradient></defs><path fill="url(#gradient_2)" d="M317.365 355.015C322.042 359.62 328.004 364.922 332.314 369.509C319.149 375.284 301.974 384.729 303.346 400.98C303.16 404.161 304.023 409.708 303.279 412.573C297.479 434.9 271.231 443.966 256.631 423.248C251.906 416.542 250.669 410.459 251.834 403.242C252.6 398.498 254.516 394.015 257.415 390.184C270.125 373.731 289.215 387.455 303.724 375.735C309.363 371.179 316.237 362.992 317.279 355.656L317.365 355.015Z"/><path fill="#F45F60" d="M478.81 356.516C484.427 356.838 491.637 356.593 497.378 356.544C498.384 369.276 496.591 384.157 498.218 396.277C500.398 399.615 502.324 402.825 506.761 403.02C518.973 403.556 531.727 406.139 541.608 397.648L541.379 356.784C547.799 356.827 554.219 356.792 560.638 356.679C560.12 402.314 568.185 422.12 509.497 418.082C499.391 417.386 486.246 415.13 481.723 404.198C476.882 397.116 478.481 366.168 478.81 356.516Z"/><path fill="#FEA544" d="M478.81 356.516C484.427 356.838 491.637 356.593 497.378 356.544C498.384 369.276 496.591 384.157 498.218 396.277L497.566 397.915C495.515 390.263 498.167 383.715 495.672 377.301C495.207 376.104 495.258 376.111 495.61 374.776C494.163 376.771 493.301 378.289 491.064 379.388C483.851 378.732 483.882 367.307 484.167 362.144C484.805 360.957 484.983 360.995 486.147 360.352L486.422 358.991C474.704 348.013 480.593 400.036 481.65 402.592C481.854 403.085 481.795 403.691 481.723 404.198C476.882 397.116 478.481 366.168 478.81 356.516Z"/><path fill="#FEA544" d="M401.58 356.241L420.421 356.342C420.148 364.59 417.775 395.531 422.707 400.627C424.213 402.184 426.378 402.906 428.473 403.225C433.103 403.931 438.271 403.441 442.956 403.404C452.405 403.328 461.862 403.154 471.307 403.46C471.433 408.041 471.244 412.762 471.379 417.534C455.818 417.533 439.797 417.808 424.245 417.53C417.758 417.414 409.74 414.202 405.422 409.039C403.398 406.613 401.992 403.733 401.325 400.646C400.346 396.122 400.169 362.954 400.646 356.963L401.58 356.241Z"/><path fill="#C0B2C8" d="M330.776 433.45C339.041 433.13 346.837 437.292 351.17 444.339C355.503 451.386 355.701 460.222 351.688 467.456C347.675 474.69 340.073 479.198 331.803 479.249C319.299 479.325 309.045 469.357 308.765 456.854C308.485 444.351 318.282 433.933 330.776 433.45Z"/><path fill="#8FD3E3" d="M317.365 355.015C314.933 339.911 319.84 326.073 336.651 323.652C342.299 322.848 348.035 324.325 352.593 327.758C357.784 331.674 360.827 337.658 361.586 344.059C362.317 350.541 360.457 357.049 356.411 362.165C350.911 368.988 340.582 370.947 332.314 369.509C328.004 364.922 322.042 359.62 317.365 355.015Z"/><path fill="#002A4F" d="M743.477 443.203C752.709 443.118 764.702 441.936 772.392 447.794C777.604 451.763 775.059 457.546 771.687 461.69C763.786 466.434 752.548 465.727 743.301 465.688C743.029 458.825 743.381 450.191 743.477 443.203ZM748.824 462.056C755.706 461.674 760.943 462.03 767.119 459.149C777.85 445.721 755.064 447.461 748.714 447.342C748.741 452.212 748.716 457.199 748.824 462.056Z"/><path fill="#002A4F" d="M623.625 444.069C630.057 443.954 647.979 442.125 651.913 446.531C657.571 452.869 649.313 456.388 645.09 457.665C646.993 459.643 651.628 463.521 652.529 465.286L652.11 466.065C646.586 466.683 643.088 463.409 639.832 459.491C637.127 456.932 632.776 457.645 628.948 457.739C628.888 460.533 629.227 463.715 627.569 465.73C625.722 465.922 625.124 466.186 623.632 465.29C623.116 458.673 623.478 450.803 623.625 444.069ZM628.986 454.138C632.256 454.139 640.44 453.968 643.332 454.33C645.537 453.765 646.918 453.603 648.246 451.823C648.364 449.606 648.647 450.433 647.282 448.844C643.048 446.888 633.793 447.743 628.746 447.91L628.986 454.138Z"/><path fill="#053678" d="M628.986 454.138C632.256 454.139 640.44 453.968 643.332 454.33C641.791 456.114 640.614 457.231 639.832 459.491C637.127 456.932 632.776 457.645 628.948 457.739C629.175 456.649 629.034 455.277 628.986 454.138Z"/><path fill="#053678" d="M706.531 443.783C708.172 443.714 710.367 443.492 711.764 444.296C715.16 446.252 724.097 461.381 724.859 464.449L724.327 465.078C719.141 464.118 719.323 461.462 713.326 461.525L712.512 461.538L700.122 461.507C698.86 463.446 698.252 464.879 696.204 465.833C694.288 465.823 694.165 465.865 692.436 465.138C693.374 462.609 704.459 446.15 706.531 443.783Z"/><path fill="#053678" d="M578.58 443.984C583.756 444.3 607.551 442.292 608.694 446.554C606.579 448.811 599.238 446.246 595.649 448.356L595.477 450.896C595.373 455.229 596.127 462.417 593.297 465.271C591.311 465.659 592.26 465.745 590.354 464.951C589.181 461.804 589.704 451.697 589.767 447.937C586.019 447.779 581.115 449.168 578.496 446.533L578.58 443.984Z"/><path fill="#053678" d="M671.723 442.954C673.664 443.052 674.022 443.067 675.843 443.722C677.079 446.034 676.054 462.021 675.891 465.817C674.604 465.792 673.368 465.615 672.09 465.464C670.909 463.883 671.652 446.206 671.723 442.954Z"/></svg>